# xmcd
#
# Track frame offsets:
#	150
#	16255
#	31700
#	42845
#	57966
#	69220
#	83931
#	95394
#	109906
#	124429
#	136565
#
# Disc length: 2043 seconds
#
# Revision: 0
# Processed by: cddbd v1.4PL0 Copyright (c) Steve Scherf et al.
# Submitted via: EasyCDDAExtractor 4.6.9.1
#
DISCID=8407f90b
DTITLE=Ernie Thacker - The Chill Of Lonesome
DYEAR=2002
DGENRE=Bluegrass
TTITLE0=Little Pieces Of Land
TTITLE1=Father Son and Holy Ghost
TTITLE2=Another Piece Of My Heart
TTITLE3=Momma Preached And Daddy Plowed
TTITLE4=Old Kentucky Home
TTITLE5=Old Barn
TTITLE6=Your Own Brand Of Misery
TTITLE7=The Chill Of Lonesome
TTITLE8=Highway Of Sorrow
TTITLE9=Whiskey And Women
TTITLE10=Old Time Drunkard
EXTD=
EXTT0=
EXTT1=
EXTT2=
EXTT3=
EXTT4=
EXTT5=
EXTT6=
EXTT7=
EXTT8=
EXTT9=
EXTT10=
PLAYORDER=
